<?xml version="1.0" encoding="UTF-8" standalone="no"?>

<svg
        width="256mm"
        height="256mm"
        viewBox="0 0 256 256"
        version="1.1"
        id="svg5"
        xmlns="http://www.w3.org/2000/svg">
  <defs>
    <linearGradient
            id="linearGradient">
      <stop
              style="stop-color:#ffd42a;stop-opacity:1;"
              offset="0"
              id="stop1" />
      <stop
              style="stop-color:#ffd42a;stop-opacity:0;"
              offset="0"
              id="stop2" />
    </linearGradient>
  </defs>
  <path
          style="fill:url(#linearGradient);fill-opacity:1;stroke:#ffd42a;stroke-width:9.62439;stroke-dasharray:none;stroke-opacity:1"
          d="m 128.00005,4.8121948 c 16.746,5e-7 27.14345,66.3737112 40.69125,76.6891212 13.54779,10.31541 76.99532,0.16793 82.17012,16.858614 5.17479,16.69068 -51.84674,47.56441 -57.02154,64.2551 -5.1748,16.69067 23.64048,76.79289 10.09266,87.1083 -13.54779,10.31542 -59.1865,-36.97728 -75.93249,-36.97728 -16.746,0 -62.384727,47.2927 -75.932521,36.97728 C 38.519734,239.40791 67.335002,179.30569 62.160207,162.61501 56.985409,145.92434 -0.03613609,115.05061 5.1386615,98.359923 10.313459,81.669239 73.760993,91.816722 87.308787,81.501314 100.85659,71.185903 111.25406,4.8121943 128.00005,4.8121948 Z" />
</svg>
