<?xml version="1.0" encoding="UTF-8" standalone="no"?>

<svg
   width="256"
   height="256"
   viewBox="0 0 256 256"
   version="1.1"
   id="svg5"
   xmlns="http://www.w3.org/2000/svg">
   <path style="fill: #ff85ff;"
         d="m 8,230 h 24.252965 v -53.30705 c 12.126484,-1.16901 22.970356,-4.67605 32.764823,-9.93661 L 97.782611,230 H 126 L 84.723321,152.14366 C 106.29446,130.75071 118.07115,98.252117 118.07115,64 H 94.051385 c 0,43.25352 -19.239131,85.22113 -61.79842,89.66338 V 64 H 8 Z"/>
   <path style="fill: #f7ff85;"
         d="m 54.415094,212 21.735851,-2.36362 C 110.44528,205.85456 128.5585,189.07275 143.04906,144.16365 L 180,30 H 153.43398 L 122.1585,136.36365 h -1.81132 L 78.56604,30 H 52 l 50.95849,125.27275 h 12.43773 c -9.17735,20.68181 -21.735841,29.54544 -42.143388,31.90909 l -20.045284,2.36363 z"/>
   <path style="fill: #ff85ff;"
         d="m 32.252965,176.69295 c 12.126484,-1.16901 22.970356,-4.67605 32.764823,-9.93661 L 84.723321,152.14366 C 106.29446,130.75071 118.07115,98.252117 118.07115,64 H 94.051385 c 0,43.25352 -19.239131,85.22113 -61.79842,89.66338 V 64 H 8 Z"/>
   <path style="fill: #ff85ff;"
         d="m 184,29.999999 v 91.176361 h 19.35308 V 29.999999 Z m 0,108.823401 v 91.17636 h 19.35308 V 138.8234 Z M 228.64708,29.999999 V 121.17636 H 248 V 29.999999 Z m 0,108.823401 v 91.17636 H 248 V 138.8234 Z"/>
</svg>
